<svg xmlns="http://www.w3.org/2000/svg" aria-hidden="true" style="width:0;height:0;position:absolute;overflow:hidden"><symbol viewBox="0 0 68 58" fill="none" id="logo"><path d="M13 23h42v32H13V23Z" fill="#9BB537"/><path d="M30 21c0 8.284-6.716 15-15 15-8.284 0-15-6.716-15-15C0 12.716 6.716 6 15 6c8.284 0 15 6.716 15 15Z" fill="#9BB537"/><path d="M49 15c0 8.284-6.716 15-15 15-8.284 0-15-6.716-15-15 0-8.284 6.716-15 15-15 8.284 0 15 6.716 15 15Z" fill="#9BB537"/><path d="M68 21c0 8.284-6.716 15-15 15-8.284 0-15-6.716-15-15 0-8.284 6.716-15 15-15 8.284 0 15 6.716 15 15Z" fill="#9BB537"/><path d="M13 53h42v3.772C55 57.45 54.412 58 53.687 58H14.313C13.588 58 13 57.45 13 56.772V53ZM26 18.964c0-1.085.672-1.964 1.5-1.964s1.5.88 1.5 1.964v9.072C29 29.121 28.328 30 27.5 30s-1.5-.88-1.5-1.964v-9.072ZM31 18.964C31 17.879 32.12 17 33.5 17s2.5.88 2.5 1.964v9.072C36 29.121 34.88 30 33.5 30s-2.5-.88-2.5-1.964v-9.072ZM38 18.964c0-1.085.895-1.964 2-1.964s2 .88 2 1.964v9.072C42 29.121 41.105 30 40 30s-2-.88-2-1.964v-9.072Z" fill="#F8F8F8"/><path fill-rule="evenodd" clip-rule="evenodd" d="M51.084 5.675a15.386 15.386 0 0 1 1.591-.082c6.732 0 12.435 4.373 14.388 10.414-.523.055-1.054.083-1.591.083-6.732 0-12.435-4.373-14.388-10.415Z" fill="#050505"/></symbol><symbol viewBox="0 0 18 18" id="search"><path d="m16.282 15.218-2.782-2.76a6.75 6.75 0 1 0-1.043 1.042l2.76 2.76a.75.75 0 0 0 1.065 0 .75.75 0 0 0 0-1.042ZM8.25 13.5a5.25 5.25 0 1 1 0-10.5 5.25 5.25 0 0 1 0 10.5Z"/></symbol><symbol viewBox="0 0 18 18" fill="none" id="search_clear"><path d="m13.5 4.5-9 9M4.5 4.5l9 9" stroke="#050505" stroke-opacity=".8" stroke-width="2" stroke-linecap="round" stroke-linejoin="round"/></symbol></svg>