<svg viewBox="0 0 126 22" fill="none" xmlns="http://www.w3.org/2000/svg"><path d="M10.558.838a.5.5 0 0 1 .884 0l3.111 5.896a.5.5 0 0 0 .357.26l6.569 1.136a.5.5 0 0 1 .273.841l-4.646 4.781a.5.5 0 0 0-.136.42l.949 6.598a.5.5 0 0 1-.716.52l-5.982-2.941a.5.5 0 0 0-.442 0L4.797 21.29a.5.5 0 0 1-.716-.52l.95-6.598a.5.5 0 0 0-.137-.42L.248 8.972A.5.5 0 0 1 .52 8.13L7.09 6.994a.5.5 0 0 0 .357-.26l3.11-5.896ZM36.558.838a.5.5 0 0 1 .884 0l3.111 5.896a.5.5 0 0 0 .357.26l6.569 1.136a.5.5 0 0 1 .273.841l-4.646 4.781a.5.5 0 0 0-.136.42l.949 6.598a.5.5 0 0 1-.716.52l-5.982-2.941a.5.5 0 0 0-.442 0l-5.982 2.941a.5.5 0 0 1-.716-.52l.95-6.598a.5.5 0 0 0-.137-.42l-4.646-4.78a.5.5 0 0 1 .273-.842l6.569-1.136a.5.5 0 0 0 .357-.26l3.11-5.896ZM62.558.838a.5.5 0 0 1 .884 0l3.111 5.896a.5.5 0 0 0 .357.26l6.569 1.136a.5.5 0 0 1 .273.841l-4.646 4.781a.5.5 0 0 0-.136.42l.948 6.598a.5.5 0 0 1-.715.52l-5.982-2.941a.5.5 0 0 0-.442 0l-5.982 2.941a.5.5 0 0 1-.715-.52l.948-6.598a.5.5 0 0 0-.136-.42l-4.646-4.78a.5.5 0 0 1 .273-.842l6.569-1.136a.5.5 0 0 0 .357-.26l3.11-5.896ZM88.558.838a.5.5 0 0 1 .884 0l3.111 5.896a.5.5 0 0 0 .357.26l6.569 1.136a.5.5 0 0 1 .273.841l-4.646 4.781a.5.5 0 0 0-.136.42l.948 6.598a.5.5 0 0 1-.715.52l-5.982-2.941a.5.5 0 0 0-.442 0l-5.982 2.941a.5.5 0 0 1-.715-.52l.948-6.598a.5.5 0 0 0-.136-.42l-4.646-4.78a.5.5 0 0 1 .273-.842l6.569-1.136a.5.5 0 0 0 .357-.26l3.11-5.896ZM114.558.838a.5.5 0 0 1 .884 0l3.111 5.896a.499.499 0 0 0 .357.26l6.569 1.136a.5.5 0 0 1 .273.841l-4.646 4.781a.5.5 0 0 0-.136.42l.949 6.598a.5.5 0 0 1-.716.52l-5.982-2.941a.502.502 0 0 0-.442 0l-5.982 2.941a.5.5 0 0 1-.716-.52l.949-6.598a.5.5 0 0 0-.136-.42l-4.646-4.78a.5.5 0 0 1 .273-.842l6.569-1.136a.499.499 0 0 0 .357-.26l3.111-5.896Z" fill="#D9D9D9"/></svg>