<svg xmlns="http://www.w3.org/2000/svg" aria-hidden="true" style="position:absolute;width:0;height:0;overflow:hidden">

   <!-- cook-hat (preserveAspectRatio="none")--> 
   <symbol viewBox="0 0 68 58" fill="none" id="logo" >
      <path d="M13 23H55V55H13V23Z" fill="#9BB537"/>
      <path d="M30 21C30 29.2843 23.2843 36 15 36C6.71573 36 0 29.2843 0 21C0 12.7157 6.71573 6 15 6C23.2843 6 30 12.7157 30 21Z" fill="#9BB537"/>
      <path d="M49 15C49 23.2843 42.2843 30 34 30C25.7157 30 19 23.2843 19 15C19 6.71573 25.7157 0 34 0C42.2843 0 49 6.71573 49 15Z" fill="#9BB537"/>
      <path d="M68 21C68 29.2843 61.2843 36 53 36C44.7157 36 38 29.2843 38 21C38 12.7157 44.7157 6 53 6C61.2843 6 68 12.7157 68 21Z" fill="#9BB537"/>
      <path d="M13 53H55V56.7719C55 57.4502 54.4124 58 53.6875 58H14.3125C13.5876 58 13 57.4502 13 56.7719V53Z" fill="#F8F8F8"/>
      <path d="M26 18.964C26 17.8793 26.6716 17 27.5 17C28.3284 17 29 17.8793 29 18.964V28.036C29 29.1207 28.3284 30 27.5 30C26.6716 30 26 29.1207 26 28.036V18.964Z" fill="#F8F8F8"/>
      <path d="M31 18.964C31 17.8793 32.1193 17 33.5 17C34.8807 17 36 17.8793 36 18.964V28.036C36 29.1207 34.8807 30 33.5 30C32.1193 30 31 29.1207 31 28.036V18.964Z" fill="#F8F8F8"/>
      <path d="M38 18.964C38 17.8793 38.8954 17 40 17C41.1046 17 42 17.8793 42 18.964V28.036C42 29.1207 41.1046 30 40 30C38.8954 30 38 29.1207 38 28.036V18.964Z" fill="#F8F8F8"/>
      <path fill-rule="evenodd" clip-rule="evenodd" d="M51.084 5.67499C51.6069 5.62064 52.1377 5.59277 52.675 5.59277C59.4067 5.59277 65.1101 9.96557 67.063 16.0073C66.5401 16.0617 66.0093 16.0896 65.4719 16.0896C58.7403 16.0896 53.0369 11.7168 51.084 5.67499Z" fill="#050505"/>
   </symbol>

   <!--search-->
   <symbol viewBox="0 0 18 18" id="search">
      <path d="M16.2825 15.2178L13.5 12.4578C14.5801 11.1111 15.1031 9.40177 14.9616 7.68127C14.8201 5.96077 14.0247 4.35988 12.7391 3.20778C11.4535 2.05567 9.77535 1.43993 8.04968 1.48715C6.32402 1.53437 4.68203 2.24097 3.46135 3.46165C2.24066 4.68234 1.53406 6.32432 1.48684 8.04999C1.43962 9.77565 2.05537 11.4538 3.20747 12.7394C4.35958 14.025 5.96047 14.8204 7.68097 14.9619C9.40146 15.1034 11.1108 14.5804 12.4575 13.5003L15.2175 16.2603C15.2872 16.3306 15.3702 16.3864 15.4616 16.4245C15.553 16.4625 15.651 16.4821 15.75 16.4821C15.849 16.4821 15.947 16.4625 16.0384 16.4245C16.1298 16.3864 16.2128 16.3306 16.2825 16.2603C16.4177 16.1204 16.4932 15.9335 16.4932 15.739C16.4932 15.5445 16.4177 15.3576 16.2825 15.2178ZM8.24999 13.5003C7.21164 13.5003 6.1966 13.1924 5.33325 12.6155C4.46989 12.0386 3.79698 11.2187 3.39962 10.2594C3.00226 9.30007 2.89829 8.24447 3.10087 7.22607C3.30344 6.20767 3.80345 5.27221 4.53768 4.53798C5.27191 3.80376 6.20737 3.30374 7.22577 3.10117C8.24417 2.8986 9.29977 3.00257 10.2591 3.39993C11.2184 3.79729 12.0383 4.47019 12.6152 5.33355C13.1921 6.19691 13.5 7.21194 13.5 8.25029C13.5 9.64268 12.9469 10.978 11.9623 11.9626C10.9777 12.9472 9.64238 13.5003 8.24999 13.5003Z"/>
   </symbol>

   <symbol viewBox="0 0 18 18" fill="none" id="search_clear">
      <path d="M13.5 4.5L4.5 13.5" stroke="#050505" stroke-opacity="0.8" stroke-width="2" stroke-linecap="round" stroke-linejoin="round"/>
      <path d="M4.5 4.5L13.5 13.5" stroke="#050505" stroke-opacity="0.8" stroke-width="2" stroke-linecap="round" stroke-linejoin="round"/>
   </symbol>


</svg>