<svg viewBox="0 0 126 22" fill="none" xmlns="http://www.w3.org/2000/svg">
<path d="M10.5578 0.83817C10.7454 0.482597 11.2546 0.482596 11.4422 0.838169L14.5531 6.73429C14.6254 6.87141 14.7573 6.96722 14.91 6.99365L21.4789 8.13022C21.875 8.19877 22.0324 8.68309 21.7522 8.97138L17.1059 13.752C16.9979 13.8631 16.9475 14.0182 16.9696 14.1716L17.9185 20.7702C17.9758 21.1681 17.5638 21.4674 17.203 21.29L11.2206 18.3485C11.0815 18.2801 10.9185 18.2801 10.7794 18.3485L4.79701 21.29C4.43623 21.4674 4.02425 21.1681 4.08147 20.7702L5.03041 14.1716C5.05248 14.0182 5.00211 13.8631 4.89406 13.752L0.247815 8.97139C-0.0323831 8.68309 0.124981 8.19877 0.521123 8.13022L7.08997 6.99365C7.24273 6.96722 7.3746 6.87141 7.44695 6.73429L10.5578 0.83817Z" fill="#EEA10C"/>
<path d="M36.5578 0.83817C36.7454 0.482597 37.2546 0.482596 37.4422 0.838169L40.5531 6.73429C40.6254 6.87141 40.7573 6.96722 40.91 6.99365L47.4789 8.13022C47.875 8.19877 48.0324 8.68309 47.7522 8.97138L43.1059 13.752C42.9979 13.8631 42.9475 14.0182 42.9696 14.1716L43.9185 20.7702C43.9758 21.1681 43.5638 21.4674 43.203 21.29L37.2206 18.3485C37.0815 18.2801 36.9185 18.2801 36.7794 18.3485L30.797 21.29C30.4362 21.4674 30.0242 21.1681 30.0815 20.7702L31.0304 14.1716C31.0525 14.0182 31.0021 13.8631 30.8941 13.752L26.2478 8.97139C25.9676 8.68309 26.125 8.19877 26.5211 8.13022L33.09 6.99365C33.2427 6.96722 33.3746 6.87141 33.4469 6.73429L36.5578 0.83817Z" fill="#EEA10C"/>
<path d="M62.5578 0.83817C62.7454 0.482597 63.2546 0.482596 63.4422 0.838169L66.5531 6.73429C66.6254 6.87141 66.7573 6.96722 66.91 6.99365L73.4789 8.13022C73.875 8.19877 74.0324 8.68309 73.7522 8.97138L69.1059 13.752C68.9979 13.8631 68.9475 14.0182 68.9696 14.1716L69.9185 20.7702C69.9758 21.1681 69.5638 21.4674 69.203 21.29L63.2206 18.3485C63.0815 18.2801 62.9185 18.2801 62.7794 18.3485L56.797 21.29C56.4362 21.4674 56.0242 21.1681 56.0815 20.7702L57.0304 14.1716C57.0525 14.0182 57.0021 13.8631 56.8941 13.752L52.2478 8.97139C51.9676 8.68309 52.125 8.19877 52.5211 8.13022L59.09 6.99365C59.2427 6.96722 59.3746 6.87141 59.4469 6.73429L62.5578 0.83817Z" fill="#EEA10C"/>
<path d="M88.5578 0.83817C88.7454 0.482597 89.2546 0.482596 89.4422 0.838169L92.5531 6.73429C92.6254 6.87141 92.7573 6.96722 92.91 6.99365L99.4789 8.13022C99.875 8.19877 100.032 8.68309 99.7522 8.97138L95.1059 13.752C94.9979 13.8631 94.9475 14.0182 94.9696 14.1716L95.9185 20.7702C95.9758 21.1681 95.5638 21.4674 95.203 21.29L89.2206 18.3485C89.0815 18.2801 88.9185 18.2801 88.7794 18.3485L82.797 21.29C82.4362 21.4674 82.0242 21.1681 82.0815 20.7702L83.0304 14.1716C83.0525 14.0182 83.0021 13.8631 82.8941 13.752L78.2478 8.97139C77.9676 8.68309 78.125 8.19877 78.5211 8.13022L85.09 6.99365C85.2427 6.96722 85.3746 6.87141 85.4469 6.73429L88.5578 0.83817Z" fill="#EEA10C"/>
<path d="M114.558 0.83817C114.745 0.482597 115.255 0.482596 115.442 0.838169L118.553 6.73429C118.625 6.87141 118.757 6.96722 118.91 6.99365L125.479 8.13022C125.875 8.19877 126.032 8.68309 125.752 8.97138L121.106 13.752C120.998 13.8631 120.948 14.0182 120.97 14.1716L121.919 20.7702C121.976 21.1681 121.564 21.4674 121.203 21.29L115.221 18.3485C115.081 18.2801 114.919 18.2801 114.779 18.3485L108.797 21.29C108.436 21.4674 108.024 21.1681 108.081 20.7702L109.03 14.1716C109.052 14.0182 109.002 13.8631 108.894 13.752L104.248 8.97139C103.968 8.68309 104.125 8.19877 104.521 8.13022L111.09 6.99365C111.243 6.96722 111.375 6.87141 111.447 6.73429L114.558 0.83817Z" fill="#EEA10C"/>
</svg>


