<svg viewBox="0 0 86 14" fill="none" xmlns="http://www.w3.org/2000/svg">
<path d="M6.04894 1.42705C6.3483 0.505742 7.6517 0.505741 7.95106 1.42705L8.79611 4.02786C8.92999 4.43989 9.31394 4.71885 9.74717 4.71885H12.4818C13.4505 4.71885 13.8533 5.95846 13.0696 6.52786L10.8572 8.13525C10.5067 8.3899 10.3601 8.84127 10.494 9.25329L11.339 11.8541C11.6384 12.7754 10.5839 13.5415 9.80017 12.9721L7.58779 11.3647C7.2373 11.1101 6.7627 11.1101 6.41222 11.3647L4.19983 12.9721C3.41612 13.5415 2.36164 12.7754 2.66099 11.8541L3.50604 9.25329C3.63992 8.84127 3.49326 8.3899 3.14277 8.13525L0.930391 6.52787C0.146677 5.95846 0.549452 4.71885 1.51818 4.71885H4.25283C4.68606 4.71885 5.07001 4.43989 5.20389 4.02786L6.04894 1.42705Z" fill="#D9D9D9" fill-opacity="0.5"/>
<path d="M24.0489 1.42705C24.3483 0.505742 25.6517 0.505741 25.9511 1.42705L26.7961 4.02786C26.93 4.43989 27.3139 4.71885 27.7472 4.71885H30.4818C31.4505 4.71885 31.8533 5.95846 31.0696 6.52786L28.8572 8.13525C28.5067 8.3899 28.3601 8.84127 28.494 9.25329L29.339 11.8541C29.6384 12.7754 28.5839 13.5415 27.8002 12.9721L25.5878 11.3647C25.2373 11.1101 24.7627 11.1101 24.4122 11.3647L22.1998 12.9721C21.4161 13.5415 20.3616 12.7754 20.661 11.8541L21.506 9.25329C21.6399 8.84127 21.4933 8.3899 21.1428 8.13525L18.9304 6.52787C18.1467 5.95846 18.5495 4.71885 19.5182 4.71885H22.2528C22.6861 4.71885 23.07 4.43989 23.2039 4.02786L24.0489 1.42705Z" fill="#D9D9D9" fill-opacity="0.5"/>
<path d="M42.0489 1.42705C42.3483 0.505742 43.6517 0.505741 43.9511 1.42705L44.7961 4.02786C44.93 4.43989 45.3139 4.71885 45.7472 4.71885H48.4818C49.4505 4.71885 49.8533 5.95846 49.0696 6.52786L46.8572 8.13525C46.5067 8.3899 46.3601 8.84127 46.494 9.25329L47.339 11.8541C47.6384 12.7754 46.5839 13.5415 45.8002 12.9721L43.5878 11.3647C43.2373 11.1101 42.7627 11.1101 42.4122 11.3647L40.1998 12.9721C39.4161 13.5415 38.3616 12.7754 38.661 11.8541L39.506 9.25329C39.6399 8.84127 39.4933 8.3899 39.1428 8.13525L36.9304 6.52787C36.1467 5.95846 36.5495 4.71885 37.5182 4.71885H40.2528C40.6861 4.71885 41.07 4.43989 41.2039 4.02786L42.0489 1.42705Z" fill="#D9D9D9" fill-opacity="0.5"/>
<path d="M60.0489 1.42705C60.3483 0.505742 61.6517 0.505741 61.9511 1.42705L62.7961 4.02786C62.93 4.43989 63.3139 4.71885 63.7472 4.71885H66.4818C67.4505 4.71885 67.8533 5.95846 67.0696 6.52786L64.8572 8.13525C64.5067 8.3899 64.3601 8.84127 64.494 9.25329L65.339 11.8541C65.6384 12.7754 64.5839 13.5415 63.8002 12.9721L61.5878 11.3647C61.2373 11.1101 60.7627 11.1101 60.4122 11.3647L58.1998 12.9721C57.4161 13.5415 56.3616 12.7754 56.661 11.8541L57.506 9.25329C57.6399 8.84127 57.4933 8.3899 57.1428 8.13525L54.9304 6.52787C54.1467 5.95846 54.5495 4.71885 55.5182 4.71885H58.2528C58.6861 4.71885 59.07 4.43989 59.2039 4.02786L60.0489 1.42705Z" fill="#D9D9D9" fill-opacity="0.5"/>
<path d="M78.0489 1.42705C78.3483 0.505742 79.6517 0.505741 79.9511 1.42705L80.7961 4.02786C80.93 4.43989 81.3139 4.71885 81.7472 4.71885H84.4818C85.4505 4.71885 85.8533 5.95846 85.0696 6.52786L82.8572 8.13525C82.5067 8.3899 82.3601 8.84127 82.494 9.25329L83.339 11.8541C83.6384 12.7754 82.5839 13.5415 81.8002 12.9721L79.5878 11.3647C79.2373 11.1101 78.7627 11.1101 78.4122 11.3647L76.1998 12.9721C75.4161 13.5415 74.3616 12.7754 74.661 11.8541L75.506 9.25329C75.6399 8.84127 75.4933 8.3899 75.1428 8.13525L72.9304 6.52787C72.1467 5.95846 72.5495 4.71885 73.5182 4.71885H76.2528C76.6861 4.71885 77.07 4.43989 77.2039 4.02786L78.0489 1.42705Z" fill="#D9D9D9" fill-opacity="0.5"/>
</svg>

