<svg viewBox="0 0 44 44" xmlns="http://www.w3.org/2000/svg">
<path d="M20.5999 22.71C20.5062 22.617 20.4318 22.5064 20.381 22.3846C20.3303 22.2627 20.3041 22.132 20.3041 22C20.3041 21.868 20.3303 21.7373 20.381 21.6154C20.4318 21.4936 20.5062 21.383 20.5999 21.29L25.1899 16.71C25.2836 16.617 25.358 16.5064 25.4088 16.3846C25.4596 16.2627 25.4857 16.132 25.4857 16C25.4857 15.868 25.4596 15.7373 25.4088 15.6154C25.358 15.4936 25.2836 15.383 25.1899 15.29C25.0026 15.1037 24.7491 14.9992 24.4849 14.9992C24.2207 14.9992 23.9673 15.1037 23.7799 15.29L19.1899 19.88C18.6281 20.4425 18.3126 21.205 18.3126 22C18.3126 22.795 18.6281 23.5575 19.1899 24.12L23.7799 28.71C23.9662 28.8948 24.2176 28.9989 24.4799 29C24.6115 29.0008 24.742 28.9756 24.8638 28.9258C24.9857 28.876 25.0965 28.8027 25.1899 28.71C25.2836 28.6171 25.358 28.5065 25.4088 28.3846C25.4596 28.2627 25.4857 28.132 25.4857 28C25.4857 27.868 25.4596 27.7373 25.4088 27.6154C25.358 27.4936 25.2836 27.383 25.1899 27.29L20.5999 22.71Z" fill="#050505"/>
</svg>
