<svg  viewBox="0 0 44 44" fill="none" xmlns="http://www.w3.org/2000/svg">
<path d="M27.4001 22.7103C27.4939 22.6173 27.5683 22.5067 27.619 22.3848C27.6698 22.263 27.6959 22.1323 27.6959 22.0003C27.6959 21.8682 27.6698 21.7375 27.619 21.6157C27.5683 21.4938 27.4939 21.3832 27.4001 21.2903L22.8101 16.7102C22.7164 16.6173 22.642 16.5067 22.5912 16.3848C22.5405 16.263 22.5143 16.1323 22.5143 16.0002C22.5143 15.8682 22.5405 15.7375 22.5912 15.6157C22.642 15.4938 22.7164 15.3832 22.8101 15.2902C22.9975 15.104 23.251 14.9995 23.5151 14.9995C23.7793 14.9995 24.0328 15.104 24.2201 15.2902L28.8101 19.8803C29.3719 20.4428 29.6875 21.2053 29.6875 22.0003C29.6875 22.7953 29.3719 23.5578 28.8101 24.1203L24.2201 28.7103C24.0339 28.895 23.7825 28.9992 23.5201 29.0003C23.3885 29.001 23.2581 28.9758 23.1362 28.926C23.0144 28.8763 22.9036 28.8029 22.8101 28.7103C22.7164 28.6173 22.642 28.5067 22.5912 28.3848C22.5405 28.263 22.5143 28.1323 22.5143 28.0003C22.5143 27.8683 22.5405 27.7375 22.5912 27.6157C22.642 27.4938 22.7164 27.3832 22.8101 27.2903L27.4001 22.7103Z" fill="#ffffff"/>
<path d="M20.4001 22.7103C20.4939 22.6173 20.5683 22.5067 20.619 22.3848C20.6698 22.263 20.6959 22.1323 20.6959 22.0003C20.6959 21.8682 20.6698 21.7375 20.619 21.6157C20.5683 21.4938 20.4939 21.3832 20.4001 21.2903L15.8101 16.7102C15.7164 16.6173 15.642 16.5067 15.5912 16.3848C15.5405 16.263 15.5143 16.1323 15.5143 16.0002C15.5143 15.8682 15.5405 15.7375 15.5912 15.6157C15.642 15.4938 15.7164 15.3832 15.8101 15.2902C15.9975 15.104 16.251 14.9995 16.5151 14.9995C16.7793 14.9995 17.0328 15.104 17.2201 15.2902L21.8101 19.8803C22.3719 20.4428 22.6875 21.2053 22.6875 22.0003C22.6875 22.7953 22.3719 23.5578 21.8101 24.1203L17.2201 28.7103C17.0339 28.895 16.7825 28.9992 16.5201 29.0003C16.3885 29.001 16.2581 28.9758 16.1362 28.926C16.0144 28.8763 15.9036 28.8029 15.8101 28.7103C15.7164 28.6173 15.642 28.5067 15.5912 28.3848C15.5405 28.263 15.5143 28.1323 15.5143 28.0003C15.5143 27.8683 15.5405 27.7375 15.5912 27.6157C15.642 27.4938 15.7164 27.3832 15.8101 27.2903L20.4001 22.7103Z" fill="#ffffff"/>
</svg>

