<svg viewBox="0 0 44 44" fill="none" xmlns="http://www.w3.org/2000/svg">
<path d="M23.4001 22.7101C23.4939 22.6171 23.5683 22.5065 23.619 22.3846C23.6698 22.2628 23.6959 22.1321 23.6959 22.0001C23.6959 21.8681 23.6698 21.7374 23.619 21.6155C23.5683 21.4936 23.4939 21.383 23.4001 21.2901L18.8101 16.7101C18.7164 16.6171 18.642 16.5065 18.5912 16.3846C18.5405 16.2628 18.5143 16.1321 18.5143 16.0001C18.5143 15.868 18.5405 15.7373 18.5912 15.6155C18.642 15.4936 18.7164 15.383 18.8101 15.2901C18.9975 15.1038 19.251 14.9993 19.5151 14.9993C19.7793 14.9993 20.0328 15.1038 20.2201 15.2901L24.8101 19.8801C25.3719 20.4426 25.6875 21.2051 25.6875 22.0001C25.6875 22.7951 25.3719 23.5576 24.8101 24.1201L20.2201 28.7101C20.0339 28.8948 19.7825 28.999 19.5201 29.0001C19.3885 29.0008 19.2581 28.9756 19.1362 28.9258C19.0144 28.8761 18.9036 28.8028 18.8101 28.7101C18.7164 28.6171 18.642 28.5065 18.5912 28.3847C18.5405 28.2628 18.5143 28.1321 18.5143 28.0001C18.5143 27.8681 18.5405 27.7374 18.5912 27.6155C18.642 27.4936 18.7164 27.383 18.8101 27.2901L23.4001 22.7101Z" fill="#050505"/>
</svg>



