<svg viewBox="0 0 44 44" fill="none" xmlns="http://www.w3.org/2000/svg">
<path d="M16.5999 22.71C16.5062 22.617 16.4318 22.5064 16.381 22.3846C16.3303 22.2627 16.3041 22.132 16.3041 22C16.3041 21.868 16.3303 21.7373 16.381 21.6154C16.4318 21.4936 16.5062 21.383 16.5999 21.29L21.1899 16.71C21.2836 16.617 21.358 16.5064 21.4088 16.3846C21.4596 16.2627 21.4857 16.132 21.4857 16C21.4857 15.868 21.4596 15.7373 21.4088 15.6154C21.358 15.4936 21.2836 15.383 21.1899 15.29C21.0026 15.1037 20.7491 14.9992 20.4849 14.9992C20.2207 14.9992 19.9673 15.1037 19.7799 15.29L15.1899 19.88C14.6281 20.4425 14.3126 21.205 14.3126 22C14.3126 22.795 14.6281 23.5575 15.1899 24.12L19.7799 28.71C19.9662 28.8948 20.2176 28.9989 20.4799 29C20.6115 29.0008 20.742 28.9756 20.8638 28.9258C20.9857 28.876 21.0965 28.8027 21.1899 28.71C21.2836 28.6171 21.358 28.5065 21.4088 28.3846C21.4596 28.2627 21.4857 28.132 21.4857 28C21.4857 27.868 21.4596 27.7373 21.4088 27.6154C21.358 27.4936 21.2836 27.383 21.1899 27.29L16.5999 22.71Z" fill="#050505"/>
<path d="M23.5999 22.71C23.5062 22.617 23.4318 22.5064 23.381 22.3846C23.3303 22.2627 23.3041 22.132 23.3041 22C23.3041 21.868 23.3303 21.7373 23.381 21.6154C23.4318 21.4936 23.5062 21.383 23.5999 21.29L28.1899 16.71C28.2836 16.617 28.358 16.5064 28.4088 16.3846C28.4596 16.2627 28.4857 16.132 28.4857 16C28.4857 15.868 28.4596 15.7373 28.4088 15.6154C28.358 15.4936 28.2836 15.383 28.1899 15.29C28.0026 15.1037 27.7491 14.9992 27.4849 14.9992C27.2207 14.9992 26.9673 15.1037 26.7799 15.29L22.1899 19.88C21.6281 20.4425 21.3126 21.205 21.3126 22C21.3126 22.795 21.6281 23.5575 22.1899 24.12L26.7799 28.71C26.9662 28.8948 27.2176 28.9989 27.4799 29C27.6115 29.0008 27.742 28.9756 27.8638 28.9258C27.9857 28.876 28.0965 28.8027 28.1899 28.71C28.2836 28.6171 28.358 28.5065 28.4088 28.3846C28.4596 28.2627 28.4857 28.132 28.4857 28C28.4857 27.868 28.4596 27.7373 28.4088 27.6154C28.358 27.4936 28.2836 27.383 28.1899 27.29L23.5999 22.71Z" fill="#050505"/>
</svg>
